<svg xmlns="http://www.w3.org/2000/svg" xmlns:xlink="http://www.w3.org/1999/xlink" width="430" zoomAndPan="magnify" viewBox="0 0 322.5 80.999996" height="108" preserveAspectRatio="xMidYMid meet" version="1.0"><defs><g/><clipPath id="bd268dbb53"><path d="M 0 0.0625 L 305 0.0625 L 305 80.9375 L 0 80.9375 Z M 0 0.0625 " clip-rule="nonzero"/></clipPath><clipPath id="6677352e3e"><path d="M 39 0.0625 L 69 0.0625 L 69 43 L 39 43 Z M 39 0.0625 " clip-rule="nonzero"/></clipPath><clipPath id="8d976c879c"><path d="M 5 0.0625 L 62 0.0625 L 62 17 L 5 17 Z M 5 0.0625 " clip-rule="nonzero"/></clipPath><clipPath id="82d61d8ad9"><path d="M 73 0.0625 L 107 0.0625 L 107 17 L 73 17 Z M 73 0.0625 " clip-rule="nonzero"/></clipPath><clipPath id="96fa6131bd"><path d="M 0 18.699219 L 112.367188 18.699219 L 112.367188 79.984375 L 0 79.984375 Z M 0 18.699219 " clip-rule="nonzero"/></clipPath><clipPath id="ddc3f90988"><path d="M 86 12 L 304.808594 12 L 304.808594 73 L 86 73 Z M 86 12 " clip-rule="nonzero"/></clipPath><clipPath id="d2486095b8"><path d="M 0.265625 16 L 23 16 L 23 44 L 0.265625 44 Z M 0.265625 16 " clip-rule="nonzero"/></clipPath><clipPath id="0d0a90df8b"><rect x="0" width="219" y="0" height="61"/></clipPath><clipPath id="267bc1948a"><rect x="0" width="305" y="0" height="81"/></clipPath></defs><g clip-path="url(#bd268dbb53)"><g transform="matrix(1, 0, 0, 1, 0, 0.000000000000006176)"><g clip-path="url(#267bc1948a)"><g clip-path="url(#6677352e3e)"><path fill="#ffffff" d="M 59.382812 32.527344 L 68.910156 0.183594 L 52.007812 0.183594 L 39.574219 42.378906 C 45.472656 38.96875 52.140625 35.636719 59.382812 32.527344 " fill-opacity="1" fill-rule="nonzero"/></g><path fill="#ffffff" d="M 36.871094 51.5625 L 30.453125 73.347656 L 47.359375 73.347656 L 57.53125 38.808594 C 49.511719 42.953125 42.507812 47.292969 36.871094 51.5625 " fill-opacity="1" fill-rule="nonzero"/><g clip-path="url(#8d976c879c)"><path fill="#ffffff" d="M 61.386719 0.0625 L 22.609375 0.0625 C 13.273438 0.0625 5.703125 7.632812 5.703125 16.96875 L 56.40625 16.96875 L 61.386719 0.0625 " fill-opacity="1" fill-rule="nonzero"/></g><g clip-path="url(#82d61d8ad9)"><path fill="#ffffff" d="M 78.292969 0.0625 L 73.3125 16.96875 L 89.828125 16.96875 C 99.164062 16.96875 106.734375 9.398438 106.734375 0.0625 L 78.292969 0.0625 " fill-opacity="1" fill-rule="nonzero"/></g><g clip-path="url(#96fa6131bd)"><path fill="#ffffff" d="M 9.378906 75.84375 C 5.101562 64.191406 32.234375 43.515625 69.980469 29.660156 C 85.296875 24.042969 100.003906 20.410156 112.363281 18.855469 C 98.800781 18.402344 78.929688 22.191406 57.832031 29.933594 C 22.109375 43.042969 -3.597656 62.527344 0.410156 73.460938 C 1.777344 77.183594 6.417969 79.433594 13.355469 80.261719 C 11.390625 79.101562 10.035156 77.632812 9.378906 75.84375 " fill-opacity="1" fill-rule="nonzero"/></g><g clip-path="url(#ddc3f90988)"><g transform="matrix(1, 0, 0, 1, 86, 12)"><g clip-path="url(#0d0a90df8b)"><g clip-path="url(#d2486095b8)"><g fill="#ffffff" fill-opacity="1"><g transform="translate(0.321616, 43.259471)"><g><path d="M 7.90625 0 L 7.90625 -20.734375 L 0.609375 -20.734375 L 0.609375 -26.421875 L 21.9375 -26.421875 L 21.9375 -20.734375 L 14.59375 -20.734375 L 14.59375 0 Z M 7.90625 0 "/></g></g></g></g><g fill="#ffffff" fill-opacity="1"><g transform="translate(22.828659, 43.259471)"><g><path d="M 17.59375 0 L 14.140625 -9.25 L 9.484375 -9.25 L 9.484375 0 L 2.796875 0 L 2.796875 -26.421875 L 15.484375 -26.421875 C 17.910156 -26.421875 19.742188 -26.082031 20.984375 -25.40625 C 22.234375 -24.726562 23.054688 -23.789062 23.453125 -22.59375 C 23.847656 -21.40625 24.046875 -19.816406 24.046875 -17.828125 C 24.046875 -15.984375 23.804688 -14.378906 23.328125 -13.015625 C 22.859375 -11.660156 21.921875 -10.675781 20.515625 -10.0625 L 24.578125 0 Z M 12.9375 -14.5625 C 14.320312 -14.5625 15.300781 -14.632812 15.875 -14.78125 C 16.457031 -14.9375 16.835938 -15.222656 17.015625 -15.640625 C 17.191406 -16.066406 17.28125 -16.78125 17.28125 -17.78125 C 17.28125 -18.800781 17.203125 -19.519531 17.046875 -19.9375 C 16.898438 -20.363281 16.535156 -20.65625 15.953125 -20.8125 C 15.378906 -20.96875 14.398438 -21.046875 13.015625 -21.046875 L 9.484375 -21.046875 L 9.484375 -14.5625 Z M 12.9375 -14.5625 "/></g></g></g><g fill="#ffffff" fill-opacity="1"><g transform="translate(48.907643, 43.259471)"><g><path d="M 19.46875 0 L 17.890625 -5 L 8.484375 -5 L 6.984375 0 L 0.3125 0 L 8.75 -26.421875 L 17.828125 -26.421875 L 26.265625 0 Z M 13.25 -20.515625 L 13.0625 -20.515625 L 10.03125 -10.40625 L 16.328125 -10.40625 Z M 13.25 -20.515625 "/></g></g></g><g fill="#ffffff" fill-opacity="1"><g transform="translate(75.485931, 43.259471)"><g><path d="M 12.484375 0.3125 C 8.742188 0.3125 5.425781 0.09375 2.53125 -0.34375 L 2.53125 -5.5625 C 5.65625 -5.257812 8.296875 -5.109375 10.453125 -5.109375 C 11.703125 -5.109375 12.660156 -5.160156 13.328125 -5.265625 C 13.992188 -5.367188 14.46875 -5.535156 14.75 -5.765625 C 15 -5.960938 15.15625 -6.207031 15.21875 -6.5 C 15.289062 -6.800781 15.328125 -7.222656 15.328125 -7.765625 C 15.328125 -8.398438 15.273438 -8.859375 15.171875 -9.140625 C 15.066406 -9.421875 14.859375 -9.617188 14.546875 -9.734375 C 14.242188 -9.847656 13.707031 -9.957031 12.9375 -10.0625 L 8.0625 -10.671875 C 6.320312 -10.878906 5 -11.320312 4.09375 -12 C 3.1875 -12.675781 2.570312 -13.550781 2.25 -14.625 C 1.925781 -15.707031 1.765625 -17.054688 1.765625 -18.671875 C 1.765625 -20.941406 2.1875 -22.664062 3.03125 -23.84375 C 3.875 -25.019531 5.003906 -25.796875 6.421875 -26.171875 C 7.847656 -26.546875 9.664062 -26.734375 11.875 -26.734375 C 13.476562 -26.734375 14.953125 -26.664062 16.296875 -26.53125 C 17.640625 -26.40625 19.109375 -26.203125 20.703125 -25.921875 L 20.703125 -20.8125 C 17.648438 -21.144531 15.15625 -21.3125 13.21875 -21.3125 C 11.164062 -21.3125 9.832031 -21.160156 9.21875 -20.859375 C 8.882812 -20.703125 8.671875 -20.484375 8.578125 -20.203125 C 8.492188 -19.921875 8.453125 -19.523438 8.453125 -19.015625 C 8.453125 -18.367188 8.492188 -17.910156 8.578125 -17.640625 C 8.671875 -17.378906 8.863281 -17.191406 9.15625 -17.078125 C 9.445312 -16.960938 9.96875 -16.851562 10.71875 -16.75 L 16.328125 -16.046875 C 17.453125 -15.921875 18.378906 -15.691406 19.109375 -15.359375 C 19.835938 -15.023438 20.445312 -14.460938 20.9375 -13.671875 C 21.675781 -12.566406 22.046875 -10.8125 22.046875 -8.40625 C 22.046875 -5.894531 21.644531 -4.003906 20.84375 -2.734375 C 20.050781 -1.472656 18.988281 -0.648438 17.65625 -0.265625 C 16.332031 0.117188 14.609375 0.3125 12.484375 0.3125 Z M 12.484375 0.3125 "/></g></g></g><g fill="#ffffff" fill-opacity="1"><g transform="translate(99.298847, 43.259471)"><g><path d="M 2.796875 0 L 2.796875 -26.421875 L 21.546875 -26.421875 L 21.546875 -21.015625 L 9.484375 -21.015625 L 9.484375 -16.046875 L 19.703125 -16.046875 L 19.703125 -10.640625 L 9.484375 -10.640625 L 9.484375 -5.421875 L 21.546875 -5.421875 L 21.546875 0 Z M 2.796875 0 "/></g></g></g><g fill="#ffffff" fill-opacity="1"><g transform="translate(122.919724, 43.259471)"><g><path d="M 19.46875 0 L 17.890625 -5 L 8.484375 -5 L 6.984375 0 L 0.3125 0 L 8.75 -26.421875 L 17.828125 -26.421875 L 26.265625 0 Z M 13.25 -20.515625 L 13.0625 -20.515625 L 10.03125 -10.40625 L 16.328125 -10.40625 Z M 13.25 -20.515625 "/></g></g></g><g fill="#ffffff" fill-opacity="1"><g transform="translate(149.498013, 43.259471)"><g><path d="M 2.796875 0 L 2.796875 -26.421875 L 9.484375 -26.421875 L 9.484375 -5.6875 L 19.96875 -5.6875 L 19.96875 0 Z M 2.796875 0 "/></g></g></g><g fill="#ffffff" fill-opacity="1"><g transform="translate(170.353517, 43.259471)"><g><path d="M 2.796875 0 L 2.796875 -26.421875 L 9.484375 -26.421875 L 9.484375 -5.6875 L 19.96875 -5.6875 L 19.96875 0 Z M 2.796875 0 "/></g></g></g><g fill="#ffffff" fill-opacity="1"><g transform="translate(191.209022, 43.259471)"><g><path d="M 19.46875 0 L 17.890625 -5 L 8.484375 -5 L 6.984375 0 L 0.3125 0 L 8.75 -26.421875 L 17.828125 -26.421875 L 26.265625 0 Z M 13.25 -20.515625 L 13.0625 -20.515625 L 10.03125 -10.40625 L 16.328125 -10.40625 Z M 13.25 -20.515625 "/></g></g></g></g></g></g><g fill="#ffffff" fill-opacity="1"><g transform="translate(94.27738, 72.482835)"><g><path d="M 4.5 -6.671875 L 4.5 -5.953125 L 1.609375 -5.953125 L 1.609375 -3.703125 L 3.953125 -3.703125 L 3.953125 -3 L 1.609375 -3 L 1.609375 0 L 0.734375 0 L 0.734375 -6.671875 Z M 4.5 -6.671875 "/></g></g></g><g fill="#ffffff" fill-opacity="1"><g transform="translate(101.005517, 72.482835)"><g><path d="M 1.59375 -6.671875 L 1.59375 -2.453125 C 1.59375 -1.859375 1.734375 -1.414062 2.015625 -1.125 C 2.304688 -0.84375 2.710938 -0.703125 3.234375 -0.703125 C 3.742188 -0.703125 4.144531 -0.84375 4.4375 -1.125 C 4.726562 -1.414062 4.875 -1.859375 4.875 -2.453125 L 4.875 -6.671875 L 5.734375 -6.671875 L 5.734375 -2.453125 C 5.734375 -1.898438 5.617188 -1.429688 5.390625 -1.046875 C 5.171875 -0.671875 4.875 -0.390625 4.5 -0.203125 C 4.125 -0.0234375 3.695312 0.0625 3.21875 0.0625 C 2.75 0.0625 2.320312 -0.0234375 1.9375 -0.203125 C 1.5625 -0.390625 1.265625 -0.671875 1.046875 -1.046875 C 0.828125 -1.429688 0.71875 -1.898438 0.71875 -2.453125 L 0.71875 -6.671875 Z M 1.59375 -6.671875 "/></g></g></g><g fill="#ffffff" fill-opacity="1"><g transform="translate(109.367326, 72.482835)"><g><path d="M 4.84375 -6.671875 L 4.84375 -5.953125 L 3.015625 -5.953125 L 3.015625 0 L 2.15625 0 L 2.15625 -5.953125 L 0.328125 -5.953125 L 0.328125 -6.671875 Z M 4.84375 -6.671875 "/></g></g></g><g fill="#ffffff" fill-opacity="1"><g transform="translate(116.448941, 72.482835)"><g><path d="M 1.59375 -6.671875 L 1.59375 -2.453125 C 1.59375 -1.859375 1.734375 -1.414062 2.015625 -1.125 C 2.304688 -0.84375 2.710938 -0.703125 3.234375 -0.703125 C 3.742188 -0.703125 4.144531 -0.84375 4.4375 -1.125 C 4.726562 -1.414062 4.875 -1.859375 4.875 -2.453125 L 4.875 -6.671875 L 5.734375 -6.671875 L 5.734375 -2.453125 C 5.734375 -1.898438 5.617188 -1.429688 5.390625 -1.046875 C 5.171875 -0.671875 4.875 -0.390625 4.5 -0.203125 C 4.125 -0.0234375 3.695312 0.0625 3.21875 0.0625 C 2.75 0.0625 2.320312 -0.0234375 1.9375 -0.203125 C 1.5625 -0.390625 1.265625 -0.671875 1.046875 -1.046875 C 0.828125 -1.429688 0.71875 -1.898438 0.71875 -2.453125 L 0.71875 -6.671875 Z M 1.59375 -6.671875 "/></g></g></g><g fill="#ffffff" fill-opacity="1"><g transform="translate(124.81075, 72.482835)"><g><path d="M 4.25 0 L 2.65625 -2.71875 L 1.609375 -2.71875 L 1.609375 0 L 0.734375 0 L 0.734375 -6.671875 L 2.890625 -6.671875 C 3.390625 -6.671875 3.8125 -6.582031 4.15625 -6.40625 C 4.507812 -6.238281 4.769531 -6.003906 4.9375 -5.703125 C 5.113281 -5.410156 5.203125 -5.078125 5.203125 -4.703125 C 5.203125 -4.242188 5.066406 -3.835938 4.796875 -3.484375 C 4.535156 -3.140625 4.140625 -2.910156 3.609375 -2.796875 L 5.28125 0 Z M 1.609375 -3.421875 L 2.890625 -3.421875 C 3.359375 -3.421875 3.707031 -3.535156 3.9375 -3.765625 C 4.175781 -4.003906 4.296875 -4.316406 4.296875 -4.703125 C 4.296875 -5.097656 4.179688 -5.40625 3.953125 -5.625 C 3.722656 -5.84375 3.367188 -5.953125 2.890625 -5.953125 L 1.609375 -5.953125 Z M 1.609375 -3.421875 "/></g></g></g><g fill="#ffffff" fill-opacity="1"><g transform="translate(132.532462, 72.482835)"><g><path d="M 1.609375 -5.953125 L 1.609375 -3.734375 L 4.03125 -3.734375 L 4.03125 -3.015625 L 1.609375 -3.015625 L 1.609375 -0.71875 L 4.328125 -0.71875 L 4.328125 0 L 0.734375 0 L 0.734375 -6.671875 L 4.328125 -6.671875 L 4.328125 -5.953125 Z M 1.609375 -5.953125 "/></g></g></g><g fill="#ffffff" fill-opacity="1"><g transform="translate(139.34658, 72.482835)"><g/></g></g><g fill="#ffffff" fill-opacity="1"><g transform="translate(143.810504, 72.482835)"><g><path d="M 2.84375 0.0625 C 2.40625 0.0625 2.007812 -0.015625 1.65625 -0.171875 C 1.3125 -0.328125 1.039062 -0.539062 0.84375 -0.8125 C 0.644531 -1.09375 0.546875 -1.414062 0.546875 -1.78125 L 1.46875 -1.78125 C 1.5 -1.46875 1.628906 -1.203125 1.859375 -0.984375 C 2.085938 -0.773438 2.414062 -0.671875 2.84375 -0.671875 C 3.257812 -0.671875 3.585938 -0.773438 3.828125 -0.984375 C 4.066406 -1.191406 4.1875 -1.457031 4.1875 -1.78125 C 4.1875 -2.03125 4.113281 -2.234375 3.96875 -2.390625 C 3.832031 -2.554688 3.660156 -2.679688 3.453125 -2.765625 C 3.242188 -2.847656 2.957031 -2.9375 2.59375 -3.03125 C 2.15625 -3.144531 1.800781 -3.257812 1.53125 -3.375 C 1.269531 -3.488281 1.046875 -3.664062 0.859375 -3.90625 C 0.671875 -4.15625 0.578125 -4.488281 0.578125 -4.90625 C 0.578125 -5.269531 0.671875 -5.59375 0.859375 -5.875 C 1.046875 -6.15625 1.304688 -6.367188 1.640625 -6.515625 C 1.972656 -6.671875 2.359375 -6.75 2.796875 -6.75 C 3.421875 -6.75 3.929688 -6.59375 4.328125 -6.28125 C 4.722656 -5.96875 4.945312 -5.554688 5 -5.046875 L 4.046875 -5.046875 C 4.015625 -5.296875 3.878906 -5.515625 3.640625 -5.703125 C 3.410156 -5.898438 3.097656 -6 2.703125 -6 C 2.335938 -6 2.039062 -5.90625 1.8125 -5.71875 C 1.582031 -5.53125 1.46875 -5.269531 1.46875 -4.9375 C 1.46875 -4.695312 1.535156 -4.5 1.671875 -4.34375 C 1.816406 -4.1875 1.988281 -4.066406 2.1875 -3.984375 C 2.382812 -3.910156 2.664062 -3.820312 3.03125 -3.71875 C 3.46875 -3.59375 3.820312 -3.472656 4.09375 -3.359375 C 4.363281 -3.242188 4.59375 -3.0625 4.78125 -2.8125 C 4.96875 -2.570312 5.0625 -2.238281 5.0625 -1.8125 C 5.0625 -1.488281 4.972656 -1.179688 4.796875 -0.890625 C 4.628906 -0.609375 4.375 -0.378906 4.03125 -0.203125 C 3.695312 -0.0234375 3.300781 0.0625 2.84375 0.0625 Z M 2.84375 0.0625 "/></g></g></g><g fill="#ffffff" fill-opacity="1"><g transform="translate(151.33159, 72.482835)"><g><path d="M 5.40625 -6.671875 L 3.234375 -2.515625 L 3.234375 0 L 2.359375 0 L 2.359375 -2.515625 L 0.1875 -6.671875 L 1.140625 -6.671875 L 2.796875 -3.296875 L 4.4375 -6.671875 Z M 5.40625 -6.671875 "/></g></g></g><g fill="#ffffff" fill-opacity="1"><g transform="translate(158.824012, 72.482835)"><g><path d="M 2.84375 0.0625 C 2.40625 0.0625 2.007812 -0.015625 1.65625 -0.171875 C 1.3125 -0.328125 1.039062 -0.539062 0.84375 -0.8125 C 0.644531 -1.09375 0.546875 -1.414062 0.546875 -1.78125 L 1.46875 -1.78125 C 1.5 -1.46875 1.628906 -1.203125 1.859375 -0.984375 C 2.085938 -0.773438 2.414062 -0.671875 2.84375 -0.671875 C 3.257812 -0.671875 3.585938 -0.773438 3.828125 -0.984375 C 4.066406 -1.191406 4.1875 -1.457031 4.1875 -1.78125 C 4.1875 -2.03125 4.113281 -2.234375 3.96875 -2.390625 C 3.832031 -2.554688 3.660156 -2.679688 3.453125 -2.765625 C 3.242188 -2.847656 2.957031 -2.9375 2.59375 -3.03125 C 2.15625 -3.144531 1.800781 -3.257812 1.53125 -3.375 C 1.269531 -3.488281 1.046875 -3.664062 0.859375 -3.90625 C 0.671875 -4.15625 0.578125 -4.488281 0.578125 -4.90625 C 0.578125 -5.269531 0.671875 -5.59375 0.859375 -5.875 C 1.046875 -6.15625 1.304688 -6.367188 1.640625 -6.515625 C 1.972656 -6.671875 2.359375 -6.75 2.796875 -6.75 C 3.421875 -6.75 3.929688 -6.59375 4.328125 -6.28125 C 4.722656 -5.96875 4.945312 -5.554688 5 -5.046875 L 4.046875 -5.046875 C 4.015625 -5.296875 3.878906 -5.515625 3.640625 -5.703125 C 3.410156 -5.898438 3.097656 -6 2.703125 -6 C 2.335938 -6 2.039062 -5.90625 1.8125 -5.71875 C 1.582031 -5.53125 1.46875 -5.269531 1.46875 -4.9375 C 1.46875 -4.695312 1.535156 -4.5 1.671875 -4.34375 C 1.816406 -4.1875 1.988281 -4.066406 2.1875 -3.984375 C 2.382812 -3.910156 2.664062 -3.820312 3.03125 -3.71875 C 3.46875 -3.59375 3.820312 -3.472656 4.09375 -3.359375 C 4.363281 -3.242188 4.59375 -3.0625 4.78125 -2.8125 C 4.96875 -2.570312 5.0625 -2.238281 5.0625 -1.8125 C 5.0625 -1.488281 4.972656 -1.179688 4.796875 -0.890625 C 4.628906 -0.609375 4.375 -0.378906 4.03125 -0.203125 C 3.695312 -0.0234375 3.300781 0.0625 2.84375 0.0625 Z M 2.84375 0.0625 "/></g></g></g><g fill="#ffffff" fill-opacity="1"><g transform="translate(166.345098, 72.482835)"><g><path d="M 4.84375 -6.671875 L 4.84375 -5.953125 L 3.015625 -5.953125 L 3.015625 0 L 2.15625 0 L 2.15625 -5.953125 L 0.328125 -5.953125 L 0.328125 -6.671875 Z M 4.84375 -6.671875 "/></g></g></g><g fill="#ffffff" fill-opacity="1"><g transform="translate(173.426713, 72.482835)"><g><path d="M 1.609375 -5.953125 L 1.609375 -3.734375 L 4.03125 -3.734375 L 4.03125 -3.015625 L 1.609375 -3.015625 L 1.609375 -0.71875 L 4.328125 -0.71875 L 4.328125 0 L 0.734375 0 L 0.734375 -6.671875 L 4.328125 -6.671875 L 4.328125 -5.953125 Z M 1.609375 -5.953125 "/></g></g></g><g fill="#ffffff" fill-opacity="1"><g transform="translate(180.240831, 72.482835)"><g><path d="M 7.5 -6.625 L 7.5 0 L 6.625 0 L 6.625 -4.9375 L 4.421875 0 L 3.8125 0 L 1.609375 -4.9375 L 1.609375 0 L 0.734375 0 L 0.734375 -6.625 L 1.671875 -6.625 L 4.125 -1.140625 L 6.5625 -6.625 Z M 7.5 -6.625 "/></g></g></g><g fill="#ffffff" fill-opacity="1"><g transform="translate(190.379609, 72.482835)"><g><path d="M 2.84375 0.0625 C 2.40625 0.0625 2.007812 -0.015625 1.65625 -0.171875 C 1.3125 -0.328125 1.039062 -0.539062 0.84375 -0.8125 C 0.644531 -1.09375 0.546875 -1.414062 0.546875 -1.78125 L 1.46875 -1.78125 C 1.5 -1.46875 1.628906 -1.203125 1.859375 -0.984375 C 2.085938 -0.773438 2.414062 -0.671875 2.84375 -0.671875 C 3.257812 -0.671875 3.585938 -0.773438 3.828125 -0.984375 C 4.066406 -1.191406 4.1875 -1.457031 4.1875 -1.78125 C 4.1875 -2.03125 4.113281 -2.234375 3.96875 -2.390625 C 3.832031 -2.554688 3.660156 -2.679688 3.453125 -2.765625 C 3.242188 -2.847656 2.957031 -2.9375 2.59375 -3.03125 C 2.15625 -3.144531 1.800781 -3.257812 1.53125 -3.375 C 1.269531 -3.488281 1.046875 -3.664062 0.859375 -3.90625 C 0.671875 -4.15625 0.578125 -4.488281 0.578125 -4.90625 C 0.578125 -5.269531 0.671875 -5.59375 0.859375 -5.875 C 1.046875 -6.15625 1.304688 -6.367188 1.640625 -6.515625 C 1.972656 -6.671875 2.359375 -6.75 2.796875 -6.75 C 3.421875 -6.75 3.929688 -6.59375 4.328125 -6.28125 C 4.722656 -5.96875 4.945312 -5.554688 5 -5.046875 L 4.046875 -5.046875 C 4.015625 -5.296875 3.878906 -5.515625 3.640625 -5.703125 C 3.410156 -5.898438 3.097656 -6 2.703125 -6 C 2.335938 -6 2.039062 -5.90625 1.8125 -5.71875 C 1.582031 -5.53125 1.46875 -5.269531 1.46875 -4.9375 C 1.46875 -4.695312 1.535156 -4.5 1.671875 -4.34375 C 1.816406 -4.1875 1.988281 -4.066406 2.1875 -3.984375 C 2.382812 -3.910156 2.664062 -3.820312 3.03125 -3.71875 C 3.46875 -3.59375 3.820312 -3.472656 4.09375 -3.359375 C 4.363281 -3.242188 4.59375 -3.0625 4.78125 -2.8125 C 4.96875 -2.570312 5.0625 -2.238281 5.0625 -1.8125 C 5.0625 -1.488281 4.972656 -1.179688 4.796875 -0.890625 C 4.628906 -0.609375 4.375 -0.378906 4.03125 -0.203125 C 3.695312 -0.0234375 3.300781 0.0625 2.84375 0.0625 Z M 2.84375 0.0625 "/></g></g></g></g></g></g></svg>