<svg xmlns="http://www.w3.org/2000/svg" xmlns:xlink="http://www.w3.org/1999/xlink" width="415" zoomAndPan="magnify" viewBox="0 0 311.25 77.999999" height="104" preserveAspectRatio="xMidYMid meet" version="1.0"><defs><g/><clipPath id="393ada8540"><path d="M 38 0.09375 L 67 0.09375 L 67 41 L 38 41 Z M 38 0.09375 " clip-rule="nonzero"/></clipPath><clipPath id="7c0cc04f66"><path d="M 5 0.09375 L 60 0.09375 L 60 17 L 5 17 Z M 5 0.09375 " clip-rule="nonzero"/></clipPath><clipPath id="ad27b01665"><path d="M 70 0.09375 L 103 0.09375 L 103 17 L 70 17 Z M 70 0.09375 " clip-rule="nonzero"/></clipPath><clipPath id="3b9ef17a52"><path d="M 0 18.0625 L 108.347656 18.0625 L 108.347656 77.15625 L 0 77.15625 Z M 0 18.0625 " clip-rule="nonzero"/></clipPath><clipPath id="5fd3fab73f"><path d="M 0.078125 16 L 22 16 L 22 43 L 0.078125 43 Z M 0.078125 16 " clip-rule="nonzero"/></clipPath><clipPath id="ae7cc7d17c"><rect x="0" width="212" y="0" height="60"/></clipPath></defs><g clip-path="url(#393ada8540)"><path fill="#ffffff" d="M 57.261719 31.398438 L 66.449219 0.210938 L 50.148438 0.210938 L 38.160156 40.894531 C 43.84375 37.609375 50.277344 34.394531 57.261719 31.398438 " fill-opacity="1" fill-rule="nonzero"/></g><path fill="#ffffff" d="M 35.550781 49.75 L 29.363281 70.757812 L 45.664062 70.757812 L 55.476562 37.457031 C 47.738281 41.449219 40.988281 45.632812 35.550781 49.75 " fill-opacity="1" fill-rule="nonzero"/><g clip-path="url(#7c0cc04f66)"><path fill="#ffffff" d="M 59.191406 0.09375 L 21.800781 0.09375 C 12.796875 0.09375 5.5 7.394531 5.5 16.394531 L 54.390625 16.394531 L 59.191406 0.09375 " fill-opacity="1" fill-rule="nonzero"/></g><g clip-path="url(#ad27b01665)"><path fill="#ffffff" d="M 75.492188 0.09375 L 70.691406 16.394531 L 86.617188 16.394531 C 95.621094 16.394531 102.917969 9.097656 102.917969 0.09375 L 75.492188 0.09375 " fill-opacity="1" fill-rule="nonzero"/></g><g clip-path="url(#3b9ef17a52)"><path fill="#ffffff" d="M 9.042969 73.164062 C 4.917969 61.929688 31.082031 41.992188 67.480469 28.636719 C 82.246094 23.214844 96.429688 19.710938 108.347656 18.214844 C 95.269531 17.78125 76.109375 21.429688 55.765625 28.894531 C 21.320312 41.535156 -3.46875 60.328125 0.398438 70.867188 C 1.714844 74.457031 6.191406 76.625 12.878906 77.425781 C 10.984375 76.308594 9.675781 74.890625 9.042969 73.164062 " fill-opacity="1" fill-rule="nonzero"/></g><g transform="matrix(1, 0, 0, 1, 83, 11)"><g clip-path="url(#ae7cc7d17c)"><g clip-path="url(#5fd3fab73f)"><g fill="#ffffff" fill-opacity="1"><g transform="translate(0.235808, 42.317365)"><g><path d="M 7.625 0 L 7.625 -20 L 0.59375 -20 L 0.59375 -25.484375 L 21.140625 -25.484375 L 21.140625 -20 L 14.078125 -20 L 14.078125 0 Z M 7.625 0 "/></g></g></g></g><g fill="#ffffff" fill-opacity="1"><g transform="translate(21.938272, 42.317365)"><g><path d="M 16.953125 0 L 13.625 -8.921875 L 9.140625 -8.921875 L 9.140625 0 L 2.703125 0 L 2.703125 -25.484375 L 14.921875 -25.484375 C 17.265625 -25.484375 19.035156 -25.15625 20.234375 -24.5 C 21.429688 -23.84375 22.222656 -22.941406 22.609375 -21.796875 C 22.992188 -20.648438 23.1875 -19.113281 23.1875 -17.1875 C 23.1875 -15.40625 22.957031 -13.859375 22.5 -12.546875 C 22.039062 -11.242188 21.132812 -10.296875 19.78125 -9.703125 L 23.703125 0 Z M 12.484375 -14.03125 C 13.816406 -14.03125 14.757812 -14.101562 15.3125 -14.25 C 15.863281 -14.40625 16.222656 -14.6875 16.390625 -15.09375 C 16.566406 -15.5 16.65625 -16.179688 16.65625 -17.140625 C 16.65625 -18.128906 16.582031 -18.828125 16.4375 -19.234375 C 16.289062 -19.640625 15.9375 -19.914062 15.375 -20.0625 C 14.820312 -20.21875 13.878906 -20.296875 12.546875 -20.296875 L 9.140625 -20.296875 L 9.140625 -14.03125 Z M 12.484375 -14.03125 "/></g></g></g><g fill="#ffffff" fill-opacity="1"><g transform="translate(47.084989, 42.317365)"><g><path d="M 18.78125 0 L 17.25 -4.8125 L 8.1875 -4.8125 L 6.734375 0 L 0.296875 0 L 8.4375 -25.484375 L 17.1875 -25.484375 L 25.328125 0 Z M 12.78125 -19.78125 L 12.59375 -19.78125 L 9.671875 -10.03125 L 15.734375 -10.03125 Z M 12.78125 -19.78125 "/></g></g></g><g fill="#ffffff" fill-opacity="1"><g transform="translate(72.71316, 42.317365)"><g><path d="M 12.03125 0.296875 C 8.425781 0.296875 5.226562 0.0859375 2.4375 -0.328125 L 2.4375 -5.375 C 5.457031 -5.070312 8.003906 -4.921875 10.078125 -4.921875 C 11.285156 -4.921875 12.207031 -4.96875 12.84375 -5.0625 C 13.488281 -5.164062 13.945312 -5.328125 14.21875 -5.546875 C 14.46875 -5.742188 14.625 -5.984375 14.6875 -6.265625 C 14.75 -6.554688 14.78125 -6.960938 14.78125 -7.484375 C 14.78125 -8.097656 14.726562 -8.539062 14.625 -8.8125 C 14.53125 -9.082031 14.332031 -9.269531 14.03125 -9.375 C 13.738281 -9.488281 13.222656 -9.597656 12.484375 -9.703125 L 7.78125 -10.296875 C 6.101562 -10.492188 4.820312 -10.914062 3.9375 -11.5625 C 3.0625 -12.21875 2.46875 -13.066406 2.15625 -14.109375 C 1.851562 -15.148438 1.703125 -16.445312 1.703125 -18 C 1.703125 -20.195312 2.109375 -21.863281 2.921875 -23 C 3.734375 -24.132812 4.828125 -24.878906 6.203125 -25.234375 C 7.578125 -25.597656 9.320312 -25.78125 11.4375 -25.78125 C 13 -25.78125 14.425781 -25.71875 15.71875 -25.59375 C 17.007812 -25.46875 18.421875 -25.269531 19.953125 -25 L 19.953125 -20.078125 C 17.015625 -20.390625 14.609375 -20.546875 12.734375 -20.546875 C 10.765625 -20.546875 9.484375 -20.398438 8.890625 -20.109375 C 8.566406 -19.960938 8.359375 -19.753906 8.265625 -19.484375 C 8.179688 -19.210938 8.140625 -18.828125 8.140625 -18.328125 C 8.140625 -17.710938 8.179688 -17.273438 8.265625 -17.015625 C 8.359375 -16.753906 8.546875 -16.566406 8.828125 -16.453125 C 9.109375 -16.347656 9.609375 -16.242188 10.328125 -16.140625 L 15.734375 -15.484375 C 16.828125 -15.359375 17.722656 -15.132812 18.421875 -14.8125 C 19.128906 -14.488281 19.71875 -13.945312 20.1875 -13.1875 C 20.894531 -12.125 21.25 -10.429688 21.25 -8.109375 C 21.25 -5.691406 20.863281 -3.867188 20.09375 -2.640625 C 19.332031 -1.421875 18.3125 -0.625 17.03125 -0.25 C 15.75 0.113281 14.082031 0.296875 12.03125 0.296875 Z M 12.03125 0.296875 "/></g></g></g><g fill="#ffffff" fill-opacity="1"><g transform="translate(95.674816, 42.317365)"><g><path d="M 2.703125 0 L 2.703125 -25.484375 L 20.78125 -25.484375 L 20.78125 -20.25 L 9.140625 -20.25 L 9.140625 -15.484375 L 19 -15.484375 L 19 -10.25 L 9.140625 -10.25 L 9.140625 -5.21875 L 20.78125 -5.21875 L 20.78125 0 Z M 2.703125 0 "/></g></g></g><g fill="#ffffff" fill-opacity="1"><g transform="translate(118.451297, 42.317365)"><g><path d="M 18.78125 0 L 17.25 -4.8125 L 8.1875 -4.8125 L 6.734375 0 L 0.296875 0 L 8.4375 -25.484375 L 17.1875 -25.484375 L 25.328125 0 Z M 12.78125 -19.78125 L 12.59375 -19.78125 L 9.671875 -10.03125 L 15.734375 -10.03125 Z M 12.78125 -19.78125 "/></g></g></g><g fill="#ffffff" fill-opacity="1"><g transform="translate(144.079469, 42.317365)"><g><path d="M 2.703125 0 L 2.703125 -25.484375 L 9.140625 -25.484375 L 9.140625 -5.484375 L 19.25 -5.484375 L 19.25 0 Z M 2.703125 0 "/></g></g></g><g fill="#ffffff" fill-opacity="1"><g transform="translate(164.189434, 42.317365)"><g><path d="M 2.703125 0 L 2.703125 -25.484375 L 9.140625 -25.484375 L 9.140625 -5.484375 L 19.25 -5.484375 L 19.25 0 Z M 2.703125 0 "/></g></g></g><g fill="#ffffff" fill-opacity="1"><g transform="translate(184.2994, 42.317365)"><g><path d="M 18.78125 0 L 17.25 -4.8125 L 8.1875 -4.8125 L 6.734375 0 L 0.296875 0 L 8.4375 -25.484375 L 17.1875 -25.484375 L 25.328125 0 Z M 12.78125 -19.78125 L 12.59375 -19.78125 L 9.671875 -10.03125 L 15.734375 -10.03125 Z M 12.78125 -19.78125 "/></g></g></g></g></g><g fill="#ffffff" fill-opacity="1"><g transform="translate(90.907167, 69.925035)"><g><path d="M 4.34375 -6.421875 L 4.34375 -5.75 L 1.546875 -5.75 L 1.546875 -3.578125 L 3.8125 -3.578125 L 3.8125 -2.890625 L 1.546875 -2.890625 L 1.546875 0 L 0.703125 0 L 0.703125 -6.421875 Z M 4.34375 -6.421875 "/></g></g></g><g fill="#ffffff" fill-opacity="1"><g transform="translate(97.394788, 69.925035)"><g><path d="M 1.53125 -6.421875 L 1.53125 -2.359375 C 1.53125 -1.785156 1.671875 -1.359375 1.953125 -1.078125 C 2.234375 -0.804688 2.617188 -0.671875 3.109375 -0.671875 C 3.609375 -0.671875 3.992188 -0.804688 4.265625 -1.078125 C 4.546875 -1.359375 4.6875 -1.785156 4.6875 -2.359375 L 4.6875 -6.421875 L 5.53125 -6.421875 L 5.53125 -2.375 C 5.53125 -1.832031 5.421875 -1.378906 5.203125 -1.015625 C 4.992188 -0.648438 4.703125 -0.378906 4.328125 -0.203125 C 3.960938 -0.0234375 3.554688 0.0625 3.109375 0.0625 C 2.648438 0.0625 2.238281 -0.0234375 1.875 -0.203125 C 1.507812 -0.378906 1.21875 -0.648438 1 -1.015625 C 0.789062 -1.378906 0.6875 -1.832031 0.6875 -2.375 L 0.6875 -6.421875 Z M 1.53125 -6.421875 "/></g></g></g><g fill="#ffffff" fill-opacity="1"><g transform="translate(105.45768, 69.925035)"><g><path d="M 4.671875 -6.421875 L 4.671875 -5.75 L 2.90625 -5.75 L 2.90625 0 L 2.078125 0 L 2.078125 -5.75 L 0.3125 -5.75 L 0.3125 -6.421875 Z M 4.671875 -6.421875 "/></g></g></g><g fill="#ffffff" fill-opacity="1"><g transform="translate(112.286143, 69.925035)"><g><path d="M 1.53125 -6.421875 L 1.53125 -2.359375 C 1.53125 -1.785156 1.671875 -1.359375 1.953125 -1.078125 C 2.234375 -0.804688 2.617188 -0.671875 3.109375 -0.671875 C 3.609375 -0.671875 3.992188 -0.804688 4.265625 -1.078125 C 4.546875 -1.359375 4.6875 -1.785156 4.6875 -2.359375 L 4.6875 -6.421875 L 5.53125 -6.421875 L 5.53125 -2.375 C 5.53125 -1.832031 5.421875 -1.378906 5.203125 -1.015625 C 4.992188 -0.648438 4.703125 -0.378906 4.328125 -0.203125 C 3.960938 -0.0234375 3.554688 0.0625 3.109375 0.0625 C 2.648438 0.0625 2.238281 -0.0234375 1.875 -0.203125 C 1.507812 -0.378906 1.21875 -0.648438 1 -1.015625 C 0.789062 -1.378906 0.6875 -1.832031 0.6875 -2.375 L 0.6875 -6.421875 Z M 1.53125 -6.421875 "/></g></g></g><g fill="#ffffff" fill-opacity="1"><g transform="translate(120.349035, 69.925035)"><g><path d="M 4.09375 0 L 2.5625 -2.625 L 1.546875 -2.625 L 1.546875 0 L 0.703125 0 L 0.703125 -6.421875 L 2.78125 -6.421875 C 3.269531 -6.421875 3.679688 -6.335938 4.015625 -6.171875 C 4.347656 -6.003906 4.597656 -5.78125 4.765625 -5.5 C 4.929688 -5.21875 5.015625 -4.894531 5.015625 -4.53125 C 5.015625 -4.09375 4.882812 -3.703125 4.625 -3.359375 C 4.375 -3.023438 3.992188 -2.800781 3.484375 -2.6875 L 5.09375 0 Z M 1.546875 -3.296875 L 2.78125 -3.296875 C 3.238281 -3.296875 3.578125 -3.40625 3.796875 -3.625 C 4.023438 -3.851562 4.140625 -4.15625 4.140625 -4.53125 C 4.140625 -4.914062 4.023438 -5.210938 3.796875 -5.421875 C 3.578125 -5.628906 3.238281 -5.734375 2.78125 -5.734375 L 1.546875 -5.734375 Z M 1.546875 -3.296875 "/></g></g></g><g fill="#ffffff" fill-opacity="1"><g transform="translate(127.794712, 69.925035)"><g><path d="M 1.546875 -5.75 L 1.546875 -3.59375 L 3.890625 -3.59375 L 3.890625 -2.90625 L 1.546875 -2.90625 L 1.546875 -0.6875 L 4.171875 -0.6875 L 4.171875 0 L 0.703125 0 L 0.703125 -6.4375 L 4.171875 -6.4375 L 4.171875 -5.75 Z M 1.546875 -5.75 "/></g></g></g><g fill="#ffffff" fill-opacity="1"><g transform="translate(134.36524, 69.925035)"><g/></g></g><g fill="#ffffff" fill-opacity="1"><g transform="translate(138.669588, 69.925035)"><g><path d="M 2.75 0.0625 C 2.320312 0.0625 1.941406 -0.0078125 1.609375 -0.15625 C 1.273438 -0.3125 1.007812 -0.519531 0.8125 -0.78125 C 0.625 -1.050781 0.53125 -1.363281 0.53125 -1.71875 L 1.421875 -1.71875 C 1.453125 -1.414062 1.578125 -1.160156 1.796875 -0.953125 C 2.015625 -0.742188 2.332031 -0.640625 2.75 -0.640625 C 3.144531 -0.640625 3.457031 -0.738281 3.6875 -0.9375 C 3.914062 -1.144531 4.03125 -1.40625 4.03125 -1.71875 C 4.03125 -1.957031 3.960938 -2.15625 3.828125 -2.3125 C 3.691406 -2.46875 3.523438 -2.582031 3.328125 -2.65625 C 3.128906 -2.738281 2.851562 -2.828125 2.5 -2.921875 C 2.082031 -3.035156 1.742188 -3.144531 1.484375 -3.25 C 1.234375 -3.363281 1.015625 -3.535156 0.828125 -3.765625 C 0.648438 -4.003906 0.5625 -4.328125 0.5625 -4.734375 C 0.5625 -5.078125 0.648438 -5.382812 0.828125 -5.65625 C 1.003906 -5.925781 1.253906 -6.132812 1.578125 -6.28125 C 1.898438 -6.4375 2.269531 -6.515625 2.6875 -6.515625 C 3.289062 -6.515625 3.785156 -6.363281 4.171875 -6.0625 C 4.554688 -5.757812 4.773438 -5.359375 4.828125 -4.859375 L 3.90625 -4.859375 C 3.875 -5.109375 3.742188 -5.328125 3.515625 -5.515625 C 3.285156 -5.703125 2.984375 -5.796875 2.609375 -5.796875 C 2.253906 -5.796875 1.96875 -5.703125 1.75 -5.515625 C 1.53125 -5.335938 1.421875 -5.082031 1.421875 -4.75 C 1.421875 -4.519531 1.484375 -4.332031 1.609375 -4.1875 C 1.742188 -4.039062 1.90625 -3.925781 2.09375 -3.84375 C 2.289062 -3.769531 2.566406 -3.6875 2.921875 -3.59375 C 3.347656 -3.46875 3.6875 -3.347656 3.9375 -3.234375 C 4.195312 -3.117188 4.421875 -2.941406 4.609375 -2.703125 C 4.796875 -2.472656 4.890625 -2.15625 4.890625 -1.75 C 4.890625 -1.4375 4.804688 -1.140625 4.640625 -0.859375 C 4.472656 -0.585938 4.222656 -0.363281 3.890625 -0.1875 C 3.566406 -0.0195312 3.1875 0.0625 2.75 0.0625 Z M 2.75 0.0625 "/></g></g></g><g fill="#ffffff" fill-opacity="1"><g transform="translate(145.921812, 69.925035)"><g><path d="M 5.203125 -6.421875 L 3.109375 -2.421875 L 3.109375 0 L 2.28125 0 L 2.28125 -2.421875 L 0.171875 -6.421875 L 1.109375 -6.421875 L 2.6875 -3.171875 L 4.28125 -6.421875 Z M 5.203125 -6.421875 "/></g></g></g><g fill="#ffffff" fill-opacity="1"><g transform="translate(153.146396, 69.925035)"><g><path d="M 2.75 0.0625 C 2.320312 0.0625 1.941406 -0.0078125 1.609375 -0.15625 C 1.273438 -0.3125 1.007812 -0.519531 0.8125 -0.78125 C 0.625 -1.050781 0.53125 -1.363281 0.53125 -1.71875 L 1.421875 -1.71875 C 1.453125 -1.414062 1.578125 -1.160156 1.796875 -0.953125 C 2.015625 -0.742188 2.332031 -0.640625 2.75 -0.640625 C 3.144531 -0.640625 3.457031 -0.738281 3.6875 -0.9375 C 3.914062 -1.144531 4.03125 -1.40625 4.03125 -1.71875 C 4.03125 -1.957031 3.960938 -2.15625 3.828125 -2.3125 C 3.691406 -2.46875 3.523438 -2.582031 3.328125 -2.65625 C 3.128906 -2.738281 2.851562 -2.828125 2.5 -2.921875 C 2.082031 -3.035156 1.742188 -3.144531 1.484375 -3.25 C 1.234375 -3.363281 1.015625 -3.535156 0.828125 -3.765625 C 0.648438 -4.003906 0.5625 -4.328125 0.5625 -4.734375 C 0.5625 -5.078125 0.648438 -5.382812 0.828125 -5.65625 C 1.003906 -5.925781 1.253906 -6.132812 1.578125 -6.28125 C 1.898438 -6.4375 2.269531 -6.515625 2.6875 -6.515625 C 3.289062 -6.515625 3.785156 -6.363281 4.171875 -6.0625 C 4.554688 -5.757812 4.773438 -5.359375 4.828125 -4.859375 L 3.90625 -4.859375 C 3.875 -5.109375 3.742188 -5.328125 3.515625 -5.515625 C 3.285156 -5.703125 2.984375 -5.796875 2.609375 -5.796875 C 2.253906 -5.796875 1.96875 -5.703125 1.75 -5.515625 C 1.53125 -5.335938 1.421875 -5.082031 1.421875 -4.75 C 1.421875 -4.519531 1.484375 -4.332031 1.609375 -4.1875 C 1.742188 -4.039062 1.90625 -3.925781 2.09375 -3.84375 C 2.289062 -3.769531 2.566406 -3.6875 2.921875 -3.59375 C 3.347656 -3.46875 3.6875 -3.347656 3.9375 -3.234375 C 4.195312 -3.117188 4.421875 -2.941406 4.609375 -2.703125 C 4.796875 -2.472656 4.890625 -2.15625 4.890625 -1.75 C 4.890625 -1.4375 4.804688 -1.140625 4.640625 -0.859375 C 4.472656 -0.585938 4.222656 -0.363281 3.890625 -0.1875 C 3.566406 -0.0195312 3.1875 0.0625 2.75 0.0625 Z M 2.75 0.0625 "/></g></g></g><g fill="#ffffff" fill-opacity="1"><g transform="translate(160.39862, 69.925035)"><g><path d="M 4.671875 -6.421875 L 4.671875 -5.75 L 2.90625 -5.75 L 2.90625 0 L 2.078125 0 L 2.078125 -5.75 L 0.3125 -5.75 L 0.3125 -6.421875 Z M 4.671875 -6.421875 "/></g></g></g><g fill="#ffffff" fill-opacity="1"><g transform="translate(167.227082, 69.925035)"><g><path d="M 1.546875 -5.75 L 1.546875 -3.59375 L 3.890625 -3.59375 L 3.890625 -2.90625 L 1.546875 -2.90625 L 1.546875 -0.6875 L 4.171875 -0.6875 L 4.171875 0 L 0.703125 0 L 0.703125 -6.4375 L 4.171875 -6.4375 L 4.171875 -5.75 Z M 1.546875 -5.75 "/></g></g></g><g fill="#ffffff" fill-opacity="1"><g transform="translate(173.79761, 69.925035)"><g><path d="M 7.234375 -6.375 L 7.234375 0 L 6.390625 0 L 6.390625 -4.75 L 4.265625 0 L 3.671875 0 L 1.546875 -4.765625 L 1.546875 0 L 0.703125 0 L 0.703125 -6.375 L 1.609375 -6.375 L 3.96875 -1.109375 L 6.328125 -6.375 Z M 7.234375 -6.375 "/></g></g></g><g fill="#ffffff" fill-opacity="1"><g transform="translate(183.573949, 69.925035)"><g><path d="M 2.75 0.0625 C 2.320312 0.0625 1.941406 -0.0078125 1.609375 -0.15625 C 1.273438 -0.3125 1.007812 -0.519531 0.8125 -0.78125 C 0.625 -1.050781 0.53125 -1.363281 0.53125 -1.71875 L 1.421875 -1.71875 C 1.453125 -1.414062 1.578125 -1.160156 1.796875 -0.953125 C 2.015625 -0.742188 2.332031 -0.640625 2.75 -0.640625 C 3.144531 -0.640625 3.457031 -0.738281 3.6875 -0.9375 C 3.914062 -1.144531 4.03125 -1.40625 4.03125 -1.71875 C 4.03125 -1.957031 3.960938 -2.15625 3.828125 -2.3125 C 3.691406 -2.46875 3.523438 -2.582031 3.328125 -2.65625 C 3.128906 -2.738281 2.851562 -2.828125 2.5 -2.921875 C 2.082031 -3.035156 1.742188 -3.144531 1.484375 -3.25 C 1.234375 -3.363281 1.015625 -3.535156 0.828125 -3.765625 C 0.648438 -4.003906 0.5625 -4.328125 0.5625 -4.734375 C 0.5625 -5.078125 0.648438 -5.382812 0.828125 -5.65625 C 1.003906 -5.925781 1.253906 -6.132812 1.578125 -6.28125 C 1.898438 -6.4375 2.269531 -6.515625 2.6875 -6.515625 C 3.289062 -6.515625 3.785156 -6.363281 4.171875 -6.0625 C 4.554688 -5.757812 4.773438 -5.359375 4.828125 -4.859375 L 3.90625 -4.859375 C 3.875 -5.109375 3.742188 -5.328125 3.515625 -5.515625 C 3.285156 -5.703125 2.984375 -5.796875 2.609375 -5.796875 C 2.253906 -5.796875 1.96875 -5.703125 1.75 -5.515625 C 1.53125 -5.335938 1.421875 -5.082031 1.421875 -4.75 C 1.421875 -4.519531 1.484375 -4.332031 1.609375 -4.1875 C 1.742188 -4.039062 1.90625 -3.925781 2.09375 -3.84375 C 2.289062 -3.769531 2.566406 -3.6875 2.921875 -3.59375 C 3.347656 -3.46875 3.6875 -3.347656 3.9375 -3.234375 C 4.195312 -3.117188 4.421875 -2.941406 4.609375 -2.703125 C 4.796875 -2.472656 4.890625 -2.15625 4.890625 -1.75 C 4.890625 -1.4375 4.804688 -1.140625 4.640625 -0.859375 C 4.472656 -0.585938 4.222656 -0.363281 3.890625 -0.1875 C 3.566406 -0.0195312 3.1875 0.0625 2.75 0.0625 Z M 2.75 0.0625 "/></g></g></g></svg>